<?xml version="1.0" encoding="UTF-8"?> <svg xmlns="http://www.w3.org/2000/svg" width="319" height="65" viewBox="0 0 319 65" fill="none"><path d="M160.33 0.379883H128.33V64.3799H160.33V0.379883Z" fill="#312783"></path><path d="M184.33 24.3799C184.33 36.6099 175.17 46.7099 163.33 48.1899C162.35 48.3199 161.35 48.3799 160.33 48.3799C150.45 48.3799 141.97 42.4099 138.29 33.8799C137.87 32.9099 137.51 31.9099 137.23 30.8799C136.64 28.8099 136.33 26.6299 136.33 24.3799C136.33 12.1399 145.49 2.04988 157.33 0.569881C158.31 0.439881 159.31 0.379883 160.33 0.379883C170.21 0.379883 178.69 6.34988 182.37 14.8799C182.79 15.8399 183.15 16.8499 183.43 17.8799C184.02 19.9499 184.33 22.1299 184.33 24.3799Z" fill="#95C11F"></path><path d="M163.33 48.1899C162.35 48.3199 161.35 48.3799 160.33 48.3799C160.33 40.3799 153.83 33.8799 145.83 33.8799H128.33V30.8799H145.83C155.42 30.8799 163.23 38.6299 163.33 48.1899Z" fill="white"></path><path d="M183.43 17.8799H174.83C165.24 17.8799 157.43 10.1299 157.33 0.569881V0.379883H160.33C160.33 8.36988 166.83 14.8799 174.83 14.8799H182.37C182.79 15.8399 183.15 16.8499 183.43 17.8799Z" fill="white"></path><path d="M221.37 23.9499C223.58 26.2899 224.68 29.1399 224.68 32.5399C224.68 35.9399 223.58 38.8299 221.37 41.1799C219.21 43.5199 216.55 44.6699 213.47 44.6699C210.25 44.6699 207.77 43.5699 206.03 41.3199V53.2199H200.1V21.0499H206.03V23.7599C207.78 21.5099 210.26 20.4099 213.47 20.4099C216.54 20.4099 219.21 21.5999 221.37 23.9499ZM212.36 39.0199C214.2 39.0199 215.71 38.4199 216.91 37.2299C218.15 35.9899 218.75 34.4299 218.75 32.5399C218.75 30.6599 218.15 29.0899 216.91 27.8999C215.72 26.6599 214.2 26.0599 212.36 26.0599C210.52 26.0599 209.01 26.6599 207.81 27.8999C206.61 29.0899 206.02 30.6599 206.02 32.5399C206.02 34.4199 206.62 35.9899 207.81 37.2299C209.01 38.4199 210.53 39.0199 212.36 39.0199Z" fill="#312783"></path><path d="M246.31 21.0499H252.24V44.0199H246.31V41.3099C244.52 43.5599 242.04 44.6599 238.82 44.6599C235.74 44.6599 233.12 43.5099 230.92 41.1699C228.76 38.8299 227.66 35.9299 227.66 32.5299C227.66 29.1299 228.76 26.2799 230.92 23.9399C233.13 21.5999 235.74 20.3999 238.82 20.3999C242.04 20.3999 244.52 21.4999 246.31 23.7499V21.0499ZM239.93 39.0199C241.77 39.0199 243.28 38.4199 244.48 37.2299C245.72 35.9899 246.32 34.4299 246.32 32.5399C246.32 30.6599 245.72 29.0899 244.48 27.8999C243.28 26.6599 241.77 26.0599 239.93 26.0599C238.09 26.0599 236.58 26.6599 235.38 27.8999C234.19 29.0899 233.59 30.6599 233.59 32.5399C233.59 34.4199 234.19 35.9899 235.38 37.2299C236.57 38.4199 238.09 39.0199 239.93 39.0199Z" fill="#312783"></path><path d="M275.02 11.8599H280.95V44.0199H275.02V41.3099C273.27 43.5599 270.79 44.6599 267.58 44.6599C264.5 44.6599 261.84 43.5099 259.63 41.1699C257.47 38.8299 256.37 35.9299 256.37 32.5299C256.37 29.1299 257.47 26.2799 259.63 23.9399C261.84 21.5999 264.5 20.3999 267.58 20.3999C270.8 20.3999 273.28 21.4999 275.02 23.7499V11.8599ZM268.68 39.0199C270.52 39.0199 272.03 38.4199 273.23 37.2299C274.42 35.9899 275.02 34.4299 275.02 32.5399C275.02 30.6599 274.42 29.0899 273.23 27.8999C272.03 26.6599 270.52 26.0599 268.68 26.0599C266.84 26.0599 265.33 26.6599 264.09 27.8999C262.9 29.0899 262.3 30.6599 262.3 32.5399C262.3 34.4199 262.9 35.9899 264.09 37.2299C265.33 38.4199 266.84 39.0199 268.68 39.0199Z" fill="#312783"></path><path d="M291.37 34.9699C292.15 37.8599 294.31 39.2899 297.85 39.2899C300.1 39.2899 301.85 38.5099 303 36.9899L307.78 39.7499C305.53 43.0099 302.17 44.6699 297.76 44.6699C293.95 44.6699 290.91 43.5199 288.62 41.2199C286.32 38.9199 285.17 36.0299 285.17 32.5399C285.17 29.0899 286.32 26.1999 288.57 23.8999C290.82 21.5599 293.76 20.4099 297.3 20.4099C300.65 20.4099 303.46 21.5599 305.62 23.8999C307.83 26.2399 308.93 29.0899 308.93 32.5399C308.93 33.3199 308.84 34.0999 308.7 34.9799H291.37V34.9699ZM303 30.3799C302.31 27.2599 300.01 25.7399 297.3 25.7399C294.13 25.7399 291.97 27.4399 291.28 30.3799H303Z" fill="#312783"></path><path d="M313.06 44.02V10.48H318.99V44.02H313.06Z" fill="#312783"></path><path d="M0.0400391 44.02V10.48H5.97004V44.02H0.0400391Z" fill="#312783"></path><path d="M22.3201 44.6699C18.9201 44.6699 16.0301 43.5199 13.6801 41.1799C11.3401 38.8399 10.1901 35.9399 10.1901 32.5399C10.1901 29.1399 11.3401 26.2899 13.6801 23.9499C16.0201 21.6099 18.9201 20.4099 22.3201 20.4099C25.7201 20.4099 28.6101 21.5999 30.9601 23.9499C33.3001 26.2899 34.5001 29.1399 34.5001 32.5399C34.5001 35.9399 33.3001 38.8299 30.9601 41.1799C28.6201 43.5199 25.7201 44.6699 22.3201 44.6699ZM22.3201 38.8799C24.1101 38.8799 25.5801 38.2799 26.7801 37.0899C27.9801 35.8999 28.5701 34.3799 28.5701 32.5399C28.5701 30.6999 27.9701 29.1899 26.7801 27.9899C25.5801 26.7999 24.1201 26.1999 22.3201 26.1999C20.5301 26.1999 19.0601 26.7999 17.8601 27.9899C16.7101 29.1799 16.1101 30.6999 16.1101 32.5399C16.1101 34.3799 16.7101 35.8899 17.8601 37.0899C19.0601 38.2799 20.5301 38.8799 22.3201 38.8799Z" fill="#312783"></path><path d="M40.9201 41.1799C38.6201 38.8399 37.4701 35.9899 37.4701 32.5399C37.4701 29.0899 38.6201 26.2499 40.9201 23.8999C43.2601 21.5599 46.1601 20.4099 49.6001 20.4099C54.0601 20.4099 58.0101 22.7099 59.8901 26.3399L54.7901 29.3299C53.8701 27.4499 51.9001 26.2499 49.5501 26.2499C46.0101 26.2499 43.3901 28.8699 43.3901 32.5399C43.3901 34.3299 43.9901 35.8499 45.1301 37.0399C46.2801 38.1899 47.7501 38.7899 49.5401 38.7899C51.9301 38.7899 53.9001 37.6399 54.8201 35.7599L59.9701 38.6999C57.9501 42.3299 54.0401 44.6699 49.5901 44.6699C46.1601 44.6699 43.2701 43.5199 40.9201 41.1799Z" fill="#312783"></path><path d="M73.68 44.6699C70.28 44.6699 67.39 43.5199 65.04 41.1799C62.7 38.8399 61.55 35.9399 61.55 32.5399C61.55 29.1399 62.7 26.2899 65.04 23.9499C67.38 21.6099 70.28 20.4099 73.68 20.4099C77.08 20.4099 79.9701 21.5999 82.3201 23.9499C84.6701 26.2999 85.86 29.1399 85.86 32.5399C85.86 35.9399 84.6701 38.8299 82.3201 41.1799C79.9701 43.5299 77.08 44.6699 73.68 44.6699ZM73.68 38.8799C75.47 38.8799 76.94 38.2799 78.14 37.0899C79.34 35.8999 79.93 34.3799 79.93 32.5399C79.93 30.6999 79.33 29.1899 78.14 27.9899C76.95 26.7999 75.48 26.1999 73.68 26.1999C71.89 26.1999 70.42 26.7999 69.22 27.9899C68.07 29.1799 67.47 30.6999 67.47 32.5399C67.47 34.3799 68.07 35.8899 69.22 37.0899C70.42 38.2799 71.89 38.8799 73.68 38.8799Z" fill="#312783"></path><path d="M99.1701 30.0999C102.52 30.7899 106.89 32.3999 106.84 37.3099C106.84 39.6499 105.97 41.4899 104.18 42.7799C102.43 44.0199 100.23 44.6599 97.6101 44.6599C92.8801 44.6599 89.6601 42.8199 87.9601 39.1899L93.1101 36.2999C93.8001 38.2799 95.2701 39.2899 97.6101 39.2899C99.7201 39.2899 100.78 38.6499 100.78 37.3099C100.78 36.0699 98.9401 35.3799 96.6001 34.7799C93.2001 33.9099 88.9301 32.4799 88.9301 27.6999C88.9301 25.4499 89.7601 23.6599 91.4101 22.3699C93.1101 21.0399 95.1801 20.3899 97.6601 20.3899C101.38 20.3899 104.6 22.1399 106.39 25.2599L101.34 28.0199C100.6 26.4599 99.3601 25.6799 97.6601 25.6799C96.1401 25.6799 94.9901 26.4099 94.9901 27.5599C94.9901 28.8199 96.8301 29.5099 99.1701 30.0999Z" fill="#312783"></path></svg> 