<?xml version="1.0" encoding="UTF-8"?> <svg xmlns="http://www.w3.org/2000/svg" width="25" height="25" viewBox="0 0 25 25" fill="none"><g clip-path="url(#clip0_74_114)"><path d="M17.5183 8.85646L11.1788 14.0383L10.8805 14.2826C10.8149 14.3345 10.7722 14.4099 10.7612 14.4928L10.6944 15.044L10.5112 16.5923C10.5129 16.6111 10.507 16.6298 10.4949 16.6443C10.4828 16.6589 10.4654 16.668 10.4465 16.6697C10.4277 16.6714 10.409 16.6655 10.3944 16.6534C10.3799 16.6413 10.3708 16.6239 10.3691 16.605L9.85349 15.0567L9.32082 13.4729C9.29809 13.402 9.301 13.3253 9.32904 13.2562C9.35707 13.1872 9.40846 13.1301 9.47423 13.0951L16.0708 9.31384L17.3123 8.60362C17.4927 8.4985 17.6774 8.72578 17.5183 8.85646Z" fill="#272727"></path><path d="M21.5909 0H3.40909C2.50494 0 1.63783 0.359171 0.9985 0.9985C0.359171 1.63783 0 2.50494 0 3.40909L0 21.5909C0 22.4951 0.359171 23.3622 0.9985 24.0015C1.63783 24.6408 2.50494 25 3.40909 25H21.5909C22.4951 25 23.3622 24.6408 24.0015 24.0015C24.6408 23.3622 25 22.4951 25 21.5909V3.40909C25 2.50494 24.6408 1.63783 24.0015 0.9985C23.3622 0.359171 22.4951 0 21.5909 0ZM20.2969 7.2358L17.8565 18.0185C17.7415 18.5241 17.0994 18.7528 16.6491 18.4446L12.9645 15.9446L11.0881 17.7188C11.0116 17.7905 10.9187 17.8426 10.8175 17.8704C10.7163 17.8981 10.6099 17.9008 10.5074 17.8781C10.405 17.8555 10.3096 17.8081 10.2296 17.7403C10.1496 17.6724 10.0874 17.586 10.0483 17.4886L9.37074 15.5L8.69318 13.5114L5.06108 12.517C4.95953 12.4949 4.86814 12.4398 4.80114 12.3603C4.73413 12.2808 4.69526 12.1815 4.69056 12.0776C4.68586 11.9738 4.7156 11.8713 4.77516 11.7861C4.83471 11.7009 4.92075 11.6378 5.01989 11.6065L19.0511 6.55114L19.3097 6.45881C19.8537 6.26847 20.4162 6.70881 20.2969 7.2358Z" fill="#272727"></path></g><defs><clipPath id="clip0_74_114"><rect width="25" height="25" fill="white"></rect></clipPath></defs></svg> 