<?xml version="1.0" encoding="UTF-8"?> <svg xmlns="http://www.w3.org/2000/svg" width="25" height="25" viewBox="0 0 25 25" fill="none"><g clip-path="url(#clip0_74_119)"><path d="M16.8226 8.17722L16.7914 8.14597C15.7699 7.12414 14.4173 6.50032 12.977 6.38672C11.5366 6.27311 10.103 6.67717 8.93391 7.52622C7.76485 8.37527 6.93712 9.61359 6.59957 11.0185C6.26202 12.4233 6.43682 13.9025 7.09253 15.19L7.35957 15.7156L6.86242 18.1303L6.85531 18.1616L9.25446 17.5934L9.80134 17.8704C10.9392 18.4357 12.2257 18.6301 13.4798 18.4262C14.7339 18.2224 15.8925 17.6306 16.7928 16.734C17.9252 15.6015 18.564 14.0672 18.5698 12.4656C18.5757 10.8641 17.9482 9.32512 16.8241 8.18432L16.8226 8.17722ZM16.5783 14.9556C16.2843 15.4187 15.8198 15.984 15.236 16.1247C14.2133 16.3732 12.6437 16.1332 10.6905 14.3136L10.6664 14.2909C8.94906 12.6999 8.50304 11.3747 8.61099 10.3235C8.67065 9.72551 9.16781 9.18716 9.58685 8.83347C9.65321 8.77722 9.73177 8.73721 9.8163 8.71663C9.90083 8.69605 9.98899 8.69545 10.0738 8.71489C10.1586 8.73433 10.2377 8.77327 10.3048 8.82862C10.3719 8.88397 10.4252 8.95421 10.4604 9.03375L11.0925 10.4627C11.1339 10.5548 11.1493 10.6564 11.137 10.7565C11.1248 10.8567 11.0853 10.9516 11.0229 11.0309L10.7033 11.4457C10.6364 11.5307 10.596 11.6336 10.5872 11.7415C10.5783 11.8493 10.6014 11.9574 10.6536 12.0522C10.8326 12.3647 11.2616 12.8264 11.7374 13.2553C12.2715 13.7369 12.8638 14.1786 13.2388 14.3306C13.3394 14.3709 13.4497 14.3803 13.5556 14.3578C13.6616 14.3353 13.7585 14.2819 13.834 14.2042L14.2047 13.8306C14.2763 13.7601 14.3652 13.7098 14.4626 13.6848C14.5599 13.6599 14.6621 13.6612 14.7587 13.6886L16.2601 14.1147C16.3432 14.1401 16.4193 14.1841 16.4827 14.2434C16.546 14.3028 16.5949 14.3759 16.6257 14.4571C16.6564 14.5383 16.6681 14.6254 16.6599 14.7118C16.6517 14.7983 16.6238 14.8817 16.5783 14.9556Z" fill="#272727"></path><path d="M21.5909 0H3.40909C2.50494 0 1.63783 0.359171 0.9985 0.9985C0.359171 1.63783 0 2.50494 0 3.40909L0 21.5909C0 22.4951 0.359171 23.3622 0.9985 24.0015C1.63783 24.6408 2.50494 25 3.40909 25H21.5909C22.4951 25 23.3622 24.6408 24.0015 24.0015C24.6408 23.3622 25 22.4951 25 21.5909V3.40909C25 2.50494 24.6408 1.63783 24.0015 0.9985C23.3622 0.359171 22.4951 0 21.5909 0ZM20.2457 12.6847C20.2038 13.9824 19.8366 15.2488 19.1778 16.3676C18.5189 17.4864 17.5896 18.4219 16.4751 19.088C15.3606 19.7541 14.0967 20.1296 12.7992 20.18C11.5018 20.2304 10.2125 19.9541 9.04972 19.3764L5.13636 20.304C5.07705 20.3178 5.01495 20.3134 4.95818 20.2913C4.90141 20.2693 4.85262 20.2306 4.81818 20.1804C4.79494 20.1471 4.77879 20.1093 4.77072 20.0695C4.76266 20.0297 4.76286 19.9886 4.77131 19.9489L5.59375 15.956C5.0573 14.9026 4.76892 13.7404 4.75069 12.5585C4.73246 11.3765 4.98486 10.206 5.48856 9.13661C5.99227 8.06719 6.73394 7.12716 7.65683 6.38847C8.57971 5.64977 9.65935 5.13198 10.8131 4.87471C11.9669 4.61745 13.1642 4.62753 14.3135 4.90418C15.4628 5.18083 16.5336 5.71673 17.4439 6.47086C18.3542 7.22498 19.0799 8.17736 19.5656 9.25511C20.0512 10.3329 20.2839 11.5074 20.2457 12.6889V12.6847Z" fill="#272727"></path></g><defs><clipPath id="clip0_74_119"><rect width="25" height="25" fill="white"></rect></clipPath></defs></svg> 